<svg width="109" height="20" viewBox="0 0 109 20" fill="none" xmlns="http://www.w3.org/2000/svg">
<g id="logo 2" clip-path="url(#clip0_122_622)">
<path id="Vector" d="M9.12762 19.9876C7.75885 19.9858 6.4107 19.654 5.19741 19.0204C3.45149 18.0947 2.03717 16.6483 1.15088 14.882C0.387397 13.3935 -0.00731527 11.7432 -2.28307e-05 10.0703C0.00129104 9.21907 0.0998773 8.37081 0.293822 7.54198C0.747165 5.62246 1.74898 3.87619 3.17721 2.51595C4.59661 1.17637 6.42018 0.345327 8.36239 0.152935C8.61339 0.152935 8.85825 0.122314 9.10313 0.122314C10.7128 0.125197 12.2892 0.581353 13.6516 1.43852C14.0841 1.70163 14.4936 2.00061 14.876 2.3323H14.7475H14.4046H13.97C13.7904 2.3323 13.5517 2.34454 13.2537 2.36903C12.951 2.39446 12.6559 2.47758 12.3844 2.6139C12.2549 2.66945 12.1452 2.76294 12.0698 2.88205C11.9944 3.00116 11.9568 3.14031 11.962 3.28118C11.0009 2.33181 9.82485 1.62831 8.5338 1.23036C8.07253 1.09453 7.59439 1.02446 7.11353 1.02222C6.4512 1.02347 5.79718 1.16974 5.19741 1.45076C4.99539 1.56095 4.79949 1.68338 4.58523 1.80582C3.64521 2.51888 2.96205 3.51784 2.63848 4.65248C2.37506 5.5321 2.24506 6.44626 2.25281 7.36444C2.27486 8.09345 2.33411 8.82085 2.43034 9.54381C2.66342 10.871 3.11217 12.151 3.75878 13.3332C4.46931 14.7585 5.44116 16.0377 6.6238 17.1043C7.59488 18.0047 8.77533 18.6486 10.0581 18.9775C10.4385 19.0734 10.829 19.1228 11.2213 19.1245C11.9618 19.1232 12.6902 18.9358 13.3394 18.5796L13.6394 18.3899C14.3813 17.8677 14.9657 17.152 15.329 16.3207C15.7418 15.3849 15.9744 14.3797 16.0147 13.3577H17.7165C17.2726 14.7573 16.5336 16.0453 15.5494 17.1349C14.2221 18.566 12.4638 19.5247 10.5418 19.8652C10.0743 19.9426 9.60146 19.9836 9.12762 19.9876Z" fill="#231F20"/>
<path id="Vector_2" d="M19.9816 19.9327H19.7245V0L28.4848 11.2274L37.135 0.122425V18.5552C37.1294 18.8071 37.2017 19.0545 37.3419 19.2637C37.4822 19.473 37.6835 19.6339 37.9186 19.7245C38.0929 19.8055 38.2756 19.8671 38.4634 19.9082H35.58C35.5152 19.9199 35.4489 19.9199 35.3841 19.9082C35.1574 19.8669 34.946 19.7654 34.7719 19.6143C34.5369 19.4179 34.384 19.1405 34.3434 18.8368V4.19345L26.8931 13.7374L20.0306 4.94032L19.9816 19.9327Z" fill="#231F20"/>
<path id="Vector_3" d="M41.5549 19.9877H38.8307C39.062 19.957 39.2848 19.8799 39.4857 19.7612C39.6825 19.6458 39.8501 19.4866 39.9755 19.296C40.1003 19.1007 40.1642 18.8727 40.1591 18.6409V1.33455H40.4407C40.9031 1.32986 41.3595 1.22982 41.7814 1.04069C42.2464 0.836239 42.6557 0.523485 42.9752 0.128547V2.23446C43.8703 1.719 44.7942 1.25503 45.7422 0.844809C46.69 0.435784 47.7 0.189498 48.7297 0.11631H49.0235C49.7165 0.0962175 50.4014 0.270064 51.0009 0.618285C51.6503 1.03408 52.1266 1.67146 52.3416 2.41199C52.5157 2.93515 52.6046 3.4829 52.6048 4.03427C52.6068 4.26783 52.5904 4.50117 52.5558 4.73215C52.4461 5.50901 52.1973 6.25973 51.8212 6.94827C51.1246 8.19341 50.1784 9.28132 49.0419 10.1439C47.8513 11.065 46.539 11.8169 45.1423 12.3783L52.2497 19.9877H48.3869L42.9874 14.1965V18.7511C42.9962 18.9401 42.9557 19.128 42.8698 19.2966C42.7839 19.4651 42.6557 19.6083 42.4977 19.7123C42.2178 19.8958 41.8895 19.9917 41.5549 19.9877ZM42.9874 12.8558C43.258 12.7615 43.5169 12.6361 43.7587 12.4824L43.9975 12.3477C45.7674 11.4417 47.2986 10.1308 48.4664 8.52156C48.9466 7.83584 49.303 7.0713 49.5194 6.26261C49.6342 5.84377 49.6919 5.41134 49.6908 4.97704C49.7163 4.05271 49.4484 3.14404 48.9256 2.38137C48.6319 1.95733 48.2215 1.6277 47.7441 1.4325C47.3004 1.25477 46.8262 1.16536 46.3483 1.16926H46.1401C45.9689 1.16811 45.7981 1.18867 45.632 1.23047C45.359 1.3353 45.0931 1.458 44.8362 1.59778L44.6648 1.6896C44.1016 1.98345 43.5384 2.30179 42.9874 2.58951V12.8558Z" fill="#231F20"/>
<path id="Vector_4" d="M60.4836 0.0979004H74.5148V0.397864C74.0863 0.397864 73.6516 0.397864 73.217 0.397864H67.9338V18.5797C67.9249 18.792 67.9713 19.003 68.0685 19.1919C68.1518 19.3412 68.2642 19.4724 68.3991 19.5775C68.5192 19.6716 68.6508 19.7498 68.7909 19.8102C68.9413 19.87 69.0971 19.9151 69.2562 19.9448H66.3728H66.183C65.9136 19.9071 65.6645 19.7806 65.4749 19.5855C65.2854 19.3904 65.1662 19.1378 65.1362 18.8674C65.1298 18.8125 65.1298 18.757 65.1362 18.7021V0.397864H58.543V0.110137C58.9715 0.110137 59.4 0.110137 59.8347 0.110137L60.4836 0.0979004Z" fill="#231F20"/>
<path id="Vector_5" d="M77.637 19.9879H74.9189C75.1501 19.9561 75.3726 19.8792 75.574 19.7614C75.7676 19.644 75.9328 19.4851 76.0576 19.2961C76.187 19.1026 76.2533 18.8738 76.2474 18.6411V1.33467H76.529C76.9912 1.32877 77.4474 1.22879 77.8697 1.04082C78.3318 0.83452 78.7388 0.521993 79.0573 0.12867V2.23458C79.9546 1.7191 80.8805 1.25514 81.8305 0.844932C82.7761 0.435795 83.7841 0.189489 84.8118 0.116433H85.1057C85.8007 0.0955196 86.4877 0.269384 87.0891 0.618409C87.7351 1.03786 88.2104 1.67381 88.4298 2.41212C88.604 2.93527 88.6928 3.48302 88.6931 4.0344C88.692 4.26785 88.6756 4.50096 88.6441 4.73228C88.5352 5.51015 88.2841 6.26137 87.9033 6.94839C87.2089 8.19326 86.2648 9.2812 85.1301 10.144C83.9374 11.0652 82.623 11.8171 81.2244 12.3784L88.3319 19.9879H84.4751L79.0573 14.2211V18.7635C79.0648 18.9529 79.0231 19.141 78.9362 19.3095C78.8493 19.478 78.7201 19.621 78.5614 19.7246C78.286 19.9017 77.9644 19.9933 77.637 19.9879ZM79.0573 12.8682C79.3294 12.7727 79.5901 12.6474 79.8348 12.4948L80.0674 12.3601C81.839 11.4541 83.3722 10.1433 84.5425 8.53394C85.0203 7.84685 85.3764 7.08274 85.5954 6.27499C85.7102 5.85614 85.7679 5.4237 85.7668 4.9894C85.7901 4.06446 85.5201 3.15587 84.9955 2.39375C84.7034 1.96824 84.2925 1.63819 83.814 1.44486C83.3722 1.26792 82.9002 1.17852 82.4243 1.18162H82.2162C82.0449 1.18047 81.8741 1.20105 81.708 1.24285C81.4345 1.34649 81.1686 1.46923 80.9122 1.61016L80.7347 1.70198C80.1715 1.99583 79.6144 2.31417 79.0573 2.60189V12.8682Z" fill="#231F20"/>
<path id="Vector_6" d="M93.0824 18.592C93.0734 18.8043 93.1198 19.0152 93.2171 19.2042C93.3022 19.3558 93.4166 19.489 93.5538 19.5959C93.6731 19.6895 93.805 19.7657 93.9456 19.8225C94.0963 19.8826 94.252 19.9297 94.4108 19.9633H91.5275C91.4623 19.9696 91.3967 19.9696 91.3315 19.9633C91.0635 19.9209 90.8162 19.7932 90.6265 19.599C90.4368 19.4049 90.3148 19.1548 90.2786 18.8858C90.2753 18.8308 90.2753 18.7756 90.2786 18.7205V1.33455C90.527 1.3569 90.777 1.3569 91.0255 1.33455C91.2812 1.29561 91.5318 1.22785 91.7723 1.13254C92.2906 0.935298 92.7455 0.600967 93.0885 0.165283V18.6165L93.0824 18.592Z" fill="#231F20"/>
<path id="Vector_7" d="M107.603 1.34671C108.18 2.14045 108.477 3.10272 108.448 4.08316C108.43 5.12633 108.148 6.14792 107.628 7.05225C107.111 7.96554 106.454 8.79188 105.681 9.50098C103.713 11.2463 101.362 12.5045 98.8185 13.1741V18.7449C98.8178 18.9591 98.763 19.1697 98.6593 19.3571C98.5679 19.5201 98.4404 19.6601 98.2865 19.7662C98.1327 19.8723 97.9565 19.9418 97.7717 19.9693H97.5758H94.6924L94.8577 19.9326C94.9886 19.9011 95.1158 19.856 95.2372 19.7979C95.3975 19.7222 95.5443 19.6209 95.6719 19.4979C95.7753 19.3925 95.8602 19.2704 95.9229 19.1367C95.9922 18.9744 96.0256 18.799 96.0208 18.6225V1.35283H96.3024C96.7648 1.34815 97.2212 1.24811 97.6431 1.05898C97.7963 0.989878 97.9455 0.912228 98.09 0.826366C98.3705 0.639621 98.6222 0.412736 98.8369 0.152961V2.27111C99.3756 1.97114 99.9143 1.65894 100.459 1.40182L100.771 1.25488C101.456 0.9333 102.167 0.669149 102.896 0.465162C103.529 0.271598 104.186 0.166545 104.848 0.152961C105.37 0.115304 105.893 0.204183 106.372 0.412029C106.852 0.619876 107.274 0.940525 107.603 1.34671ZM105.216 6.75842C105.641 5.60679 105.641 4.341 105.216 3.18938C105.093 2.81991 104.897 2.47941 104.638 2.18883C104.379 1.89825 104.063 1.66375 103.71 1.49975C103.037 1.21785 102.303 1.11859 101.579 1.21203C101.218 1.36507 100.863 1.53038 100.526 1.70791C99.9633 1.99564 99.4001 2.32009 98.8491 2.60169V12.8741C100.357 12.193 101.745 11.2709 102.957 10.1438C103.967 9.20982 104.741 8.04962 105.216 6.75842Z" fill="#231F20"/>
</g>
<defs>
<clipPath id="clip0_122_622">
<rect width="108.448" height="20" fill="white"/>
</clipPath>
</defs>
</svg>
