<svg width="250" height="46" viewBox="0 0 250 46" fill="none" xmlns="http://www.w3.org/2000/svg">
<g clip-path="url(#clip0_122_1263)">
<path d="M21.4576 45.9717C18.3148 45.9675 15.2194 45.2044 12.4337 43.7471C8.425 41.618 5.17768 38.2912 3.14274 34.2289C1.38975 30.8051 0.483484 27.0096 0.500228 23.1618C0.503245 21.204 0.729601 19.253 1.1749 17.3467C2.21579 12.9318 4.51598 8.91541 7.79524 5.78686C11.0542 2.70582 15.2412 0.794422 19.7006 0.351921C20.2769 0.351921 20.8391 0.281494 21.4013 0.281494C25.0972 0.288123 28.7165 1.33728 31.8449 3.30877C32.8377 3.91392 33.7781 4.60156 34.656 5.36447H34.3609H33.5737H32.5758C32.1635 5.36447 31.6153 5.39262 30.9312 5.44895C30.2361 5.50743 29.5586 5.69859 28.9353 6.01214C28.6378 6.13991 28.3859 6.35493 28.2128 6.62888C28.0397 6.90284 27.9534 7.22287 27.9654 7.54688C25.7586 5.36334 23.0584 3.74528 20.0941 2.83001C19.035 2.51758 17.9372 2.35642 16.8332 2.35128C15.3124 2.35414 13.8108 2.69058 12.4337 3.33692C11.9698 3.59036 11.52 3.87194 11.0281 4.15355C8.86978 5.7936 7.30124 8.0912 6.55831 10.7009C5.95348 12.724 5.655 14.8266 5.6728 16.9384C5.72343 18.6151 5.85947 20.2881 6.08042 21.9509C6.61558 25.0034 7.64591 27.9475 9.13054 30.6666C10.762 33.9447 12.9933 36.8868 15.7087 39.34C17.9384 41.411 20.6487 42.8919 23.5941 43.6485C24.4673 43.8691 25.3641 43.9826 26.2647 43.9864C27.965 43.9834 29.6373 43.5526 31.128 42.7333L31.8167 42.2968C33.5201 41.0958 34.862 39.4497 35.6962 37.5377C36.6439 35.3854 37.1779 33.0734 37.2704 30.7229H41.178C40.1586 33.9419 38.4618 36.9043 36.2022 39.4104C33.1545 42.702 29.1174 44.9069 24.7045 45.6901C23.6311 45.8682 22.5455 45.9624 21.4576 45.9717Z" fill="white"/>
<path d="M46.3784 45.8451H45.7881V0L65.9021 25.8231L85.763 0.281578V42.6771C85.7503 43.2563 85.9163 43.8253 86.2382 44.3066C86.5602 44.7879 87.0226 45.158 87.5622 45.3664C87.9625 45.5526 88.382 45.6943 88.8132 45.7888H82.1928C82.0441 45.8157 81.8918 45.8157 81.743 45.7888C81.2225 45.6938 80.737 45.4604 80.3375 45.113C79.7977 44.6612 79.4467 44.0231 79.3535 43.3247V9.64494L62.2475 31.596L46.4909 11.3627L46.3784 45.8451Z" fill="white"/>
<path d="M95.9111 45.9718H89.6562C90.1874 45.901 90.6989 45.7239 91.1602 45.4509C91.612 45.1853 91.9967 44.8191 92.2847 44.3808C92.5712 43.9315 92.718 43.4071 92.7064 42.8742V3.06946H93.3529C94.4145 3.05868 95.4624 2.82859 96.4312 2.39359C97.4988 1.92335 98.4386 1.20402 99.1721 0.295658V5.13925C101.227 3.9537 103.349 2.88658 105.525 1.94306C107.701 1.0023 110.02 0.435846 112.385 0.267513H113.059C114.65 0.2213 116.223 0.621148 117.599 1.42206C119.09 2.37838 120.184 3.84435 120.678 5.54759C121.077 6.75084 121.281 8.01066 121.282 9.27883C121.287 9.816 121.249 10.3527 121.17 10.884C120.918 12.6707 120.346 14.3974 119.483 15.981C117.883 18.8449 115.711 21.347 113.101 23.3309C110.368 25.4494 107.355 27.1789 104.148 28.4701L120.467 45.9718H111.597L99.2002 32.652V43.1276C99.2204 43.5622 99.1273 43.9945 98.9302 44.3821C98.733 44.7697 98.4385 45.0992 98.0757 45.3382C97.4331 45.7602 96.6795 45.9808 95.9111 45.9718ZM99.2002 29.5684C99.8216 29.3514 100.416 29.0631 100.971 28.7095L101.519 28.3997C105.583 26.3159 109.099 23.3008 111.78 19.5996C112.883 18.0224 113.701 16.264 114.198 14.404C114.461 13.4407 114.594 12.4461 114.591 11.4472C114.65 9.32124 114.035 7.2313 112.834 5.47716C112.16 4.50187 111.218 3.74371 110.122 3.29475C109.103 2.88598 108.014 2.68033 106.917 2.68931H106.439C106.046 2.68666 105.654 2.73394 105.272 2.83008C104.645 3.07118 104.035 3.35341 103.445 3.6749L103.052 3.88609C101.758 4.56194 100.465 5.29411 99.2002 5.95588V29.5684Z" fill="white"/>
<path d="M139.372 0.225342H171.588V0.915258C170.604 0.915258 169.606 0.915258 168.608 0.915258H156.478V42.7335C156.457 43.2217 156.564 43.707 156.787 44.1415C156.978 44.485 157.236 44.7866 157.546 45.0285C157.822 45.2448 158.124 45.4246 158.446 45.5635C158.791 45.7012 159.149 45.805 159.514 45.8733H152.894H152.458C151.839 45.7864 151.267 45.4957 150.832 45.0469C150.397 44.5982 150.123 44.0171 150.054 43.3952C150.04 43.2689 150.04 43.1413 150.054 43.015V0.915258H134.916V0.253487C135.9 0.253487 136.884 0.253487 137.882 0.253487L139.372 0.225342Z" fill="white"/>
<path d="M178.756 45.9719H172.516C173.046 45.8989 173.557 45.7218 174.02 45.4509C174.464 45.1809 174.843 44.8154 175.13 44.3808C175.427 43.9358 175.579 43.4094 175.566 42.8742V3.0695H176.212C177.274 3.05594 178.321 2.82596 179.291 2.39363C180.352 1.91915 181.286 1.20034 182.017 0.295697V5.13929C184.078 3.95369 186.203 2.88658 188.385 1.9431C190.556 1.00208 192.87 0.435581 195.23 0.267552H195.905C197.5 0.219451 199.078 0.619338 200.459 1.4221C201.942 2.38682 203.033 3.84953 203.537 5.54763C203.937 6.75087 204.141 8.0107 204.141 9.27887C204.139 9.8158 204.101 10.352 204.029 10.884C203.779 12.6731 203.202 14.4009 202.328 15.9811C200.734 18.8442 198.566 21.3465 195.961 23.3309C193.222 25.4497 190.204 27.1791 186.993 28.4702L203.312 45.9719H194.457L182.017 32.7083V43.1558C182.035 43.5915 181.939 44.0241 181.739 44.4116C181.54 44.7991 181.243 45.1281 180.879 45.3664C180.247 45.7736 179.508 45.9843 178.756 45.9719ZM182.017 29.5966C182.642 29.3769 183.241 29.0888 183.802 28.7377L184.337 28.4279C188.404 26.3442 191.925 23.3293 194.611 19.6278C195.709 18.0475 196.526 16.2901 197.029 14.4322C197.293 13.4689 197.425 12.4743 197.423 11.4754C197.476 9.34801 196.856 7.25827 195.652 5.50539C194.981 4.5267 194.038 3.76759 192.939 3.32293C191.924 2.91596 190.841 2.71034 189.748 2.71749H189.27C188.877 2.71485 188.485 2.76217 188.104 2.8583C187.476 3.09668 186.865 3.37899 186.276 3.70312L185.869 3.91432C184.576 4.59017 183.297 5.32234 182.017 5.98411V29.5966Z" fill="white"/>
<path d="M214.22 42.7615C214.199 43.2498 214.306 43.735 214.529 44.1695C214.724 44.5183 214.987 44.8247 215.302 45.0707C215.576 45.2857 215.879 45.4611 216.202 45.5917C216.548 45.73 216.905 45.8384 217.27 45.9155H210.649C210.5 45.93 210.349 45.93 210.2 45.9155C209.584 45.818 209.016 45.5242 208.581 45.0778C208.145 44.6313 207.865 44.0561 207.782 43.4374C207.774 43.3108 207.774 43.1838 207.782 43.0572V3.06945C208.352 3.12084 208.926 3.12084 209.497 3.06945C210.084 2.97988 210.659 2.82403 211.212 2.60482C212.402 2.15116 213.446 1.3822 214.234 0.380127V42.8179L214.22 42.7615Z" fill="white"/>
<path d="M247.56 3.09752C248.883 4.92313 249.565 7.13635 249.5 9.39137C249.459 11.7907 248.811 14.1403 247.616 16.2203C246.43 18.3208 244.922 20.2214 243.146 21.8524C238.628 25.8666 233.23 28.7605 227.39 30.3005V43.1135C227.388 43.6061 227.262 44.0904 227.024 44.5215C226.814 44.8964 226.522 45.2183 226.168 45.4623C225.815 45.7064 225.411 45.8662 224.986 45.9295H224.536H217.916L218.296 45.845C218.596 45.7727 218.888 45.6689 219.167 45.5353C219.535 45.3612 219.872 45.1282 220.165 44.8453C220.402 44.6029 220.597 44.322 220.741 44.0146C220.9 43.6412 220.977 43.2377 220.966 42.8318V3.11162H221.613C222.674 3.10084 223.722 2.87075 224.691 2.43575C225.043 2.27682 225.385 2.09822 225.717 1.90074C226.361 1.47123 226.939 0.949389 227.432 0.351909V5.22365C228.669 4.53372 229.906 3.81565 231.157 3.22428L231.874 2.88633C233.446 2.14669 235.078 1.53914 236.751 1.06997C238.205 0.624774 239.714 0.383152 241.235 0.351909C242.432 0.265297 243.632 0.469718 244.733 0.947765C245.835 1.42581 246.804 2.1633 247.56 3.09752ZM242.078 15.5445C243.055 12.8957 243.055 9.9844 242.078 7.33567C241.797 6.48588 241.345 5.70273 240.75 5.03441C240.156 4.36608 239.431 3.82671 238.62 3.44953C237.077 2.80116 235.389 2.57286 233.729 2.78776C232.9 3.13976 232.084 3.51997 231.311 3.92829C230.018 4.59006 228.725 5.3363 227.46 5.98399V29.6106C230.923 28.0441 234.109 25.9231 236.891 23.3308C239.211 21.1827 240.988 18.5142 242.078 15.5445Z" fill="white"/>
</g>
<defs>
<clipPath id="clip0_122_1263">
<rect width="249" height="46" fill="white" transform="translate(0.5)"/>
</clipPath>
</defs>
</svg>
